<svg width="143" height="30" viewBox="0 0 143 30" fill="none" xmlns="http://www.w3.org/2000/svg">
<path d="M10.4344 8.625V20H8.09063V10.4609H3.52031V20H1.17656V8.625H10.4344ZM12.9413 15.8594V15.6953C12.9413 15.0755 13.0298 14.5052 13.2069 13.9844C13.384 13.4583 13.6418 13.0026 13.9803 12.6172C14.3189 12.2318 14.7355 11.9323 15.2303 11.7188C15.7251 11.5 16.2928 11.3906 16.9334 11.3906C17.5741 11.3906 18.1444 11.5 18.6444 11.7188C19.1444 11.9323 19.5636 12.2318 19.9022 12.6172C20.2459 13.0026 20.5064 13.4583 20.6834 13.9844C20.8605 14.5052 20.9491 15.0755 20.9491 15.6953V15.8594C20.9491 16.474 20.8605 17.0443 20.6834 17.5703C20.5064 18.0911 20.2459 18.5469 19.9022 18.9375C19.5636 19.3229 19.147 19.6224 18.6522 19.8359C18.1574 20.0495 17.5897 20.1562 16.9491 20.1562C16.3084 20.1562 15.7381 20.0495 15.2381 19.8359C14.7433 19.6224 14.3241 19.3229 13.9803 18.9375C13.6418 18.5469 13.384 18.0911 13.2069 17.5703C13.0298 17.0443 12.9413 16.474 12.9413 15.8594ZM15.1913 15.6953V15.8594C15.1913 16.2135 15.2225 16.5443 15.285 16.8516C15.3475 17.1589 15.4465 17.4297 15.5819 17.6641C15.7225 17.8932 15.9048 18.0729 16.1288 18.2031C16.3527 18.3333 16.6261 18.3984 16.9491 18.3984C17.2616 18.3984 17.5298 18.3333 17.7538 18.2031C17.9777 18.0729 18.1574 17.8932 18.2928 17.6641C18.4282 17.4297 18.5272 17.1589 18.5897 16.8516C18.6574 16.5443 18.6913 16.2135 18.6913 15.8594V15.6953C18.6913 15.3516 18.6574 15.0286 18.5897 14.7266C18.5272 14.4193 18.4256 14.1484 18.285 13.9141C18.1496 13.6745 17.9699 13.487 17.7459 13.3516C17.522 13.2161 17.2511 13.1484 16.9334 13.1484C16.6157 13.1484 16.3449 13.2161 16.1209 13.3516C15.9022 13.487 15.7225 13.6745 15.5819 13.9141C15.4465 14.1484 15.3475 14.4193 15.285 14.7266C15.2225 15.0286 15.1913 15.3516 15.1913 15.6953ZM24.2528 11.5469H26.5028L26.4325 14.375C26.4117 15.2812 26.3075 16.0599 26.12 16.7109C25.9325 17.362 25.6825 17.9089 25.37 18.3516C25.0575 18.7943 24.7007 19.1484 24.2997 19.4141C23.9039 19.6745 23.4872 19.8698 23.0497 20H22.6278L22.6044 18.2656L22.8388 18.2422C23.1044 17.9661 23.3231 17.6979 23.495 17.4375C23.6669 17.1719 23.7997 16.8932 23.8934 16.6016C23.9872 16.3099 24.0549 15.9844 24.0966 15.625C24.1434 15.2656 24.1721 14.849 24.1825 14.375L24.2528 11.5469ZM24.8622 11.5469H30.4638V20H28.2216V13.3516H24.8622V11.5469ZM22.1122 18.2422H31.6747V22.5391H29.4247V20H24.4169V22.5391H22.1122V18.2422ZM39.3769 11.5469V13.3125H35.2831V11.5469H39.3769ZM35.9316 11.5469V20H33.6816V11.5469H35.9316ZM41.0175 11.5469V20H38.7597V11.5469H41.0175ZM45.9541 16.8594L48.79 11.5469H51.04V20H48.79V14.6797L45.9541 20H43.7041V11.5469H45.9541V16.8594ZM57.2266 18.3984C57.5026 18.3984 57.7474 18.3464 57.9609 18.2422C58.1745 18.1328 58.3411 17.9818 58.4609 17.7891C58.5859 17.5911 58.651 17.3594 58.6562 17.0938H60.7734C60.7682 17.6875 60.6094 18.2161 60.2969 18.6797C59.9844 19.138 59.5651 19.5 59.0391 19.7656C58.513 20.026 57.9245 20.1562 57.2734 20.1562C56.6172 20.1562 56.0443 20.0469 55.5547 19.8281C55.0703 19.6094 54.6667 19.3073 54.3438 18.9219C54.0208 18.5312 53.7786 18.0781 53.6172 17.5625C53.4557 17.0417 53.375 16.4844 53.375 15.8906V15.6641C53.375 15.0651 53.4557 14.5078 53.6172 13.9922C53.7786 13.4714 54.0208 13.0182 54.3438 12.6328C54.6667 12.2422 55.0703 11.9375 55.5547 11.7188C56.0391 11.5 56.6068 11.3906 57.2578 11.3906C57.9505 11.3906 58.5573 11.5234 59.0781 11.7891C59.6042 12.0547 60.0156 12.4349 60.3125 12.9297C60.6146 13.4193 60.7682 14 60.7734 14.6719H58.6562C58.651 14.3906 58.5911 14.1354 58.4766 13.9062C58.3672 13.6771 58.2057 13.4948 57.9922 13.3594C57.7839 13.2188 57.526 13.1484 57.2188 13.1484C56.8906 13.1484 56.6224 13.2188 56.4141 13.3594C56.2057 13.4948 56.0443 13.6823 55.9297 13.9219C55.8151 14.1562 55.7344 14.4245 55.6875 14.7266C55.6458 15.0234 55.625 15.3359 55.625 15.6641V15.8906C55.625 16.2188 55.6458 16.5339 55.6875 16.8359C55.7292 17.138 55.8073 17.4062 55.9219 17.6406C56.0417 17.875 56.2057 18.0599 56.4141 18.1953C56.6224 18.3307 56.8932 18.3984 57.2266 18.3984ZM67.6006 18.0938V14.3281C67.6006 14.0573 67.5564 13.8255 67.4678 13.6328C67.3793 13.4349 67.2412 13.2812 67.0537 13.1719C66.8715 13.0625 66.6345 13.0078 66.3428 13.0078C66.0928 13.0078 65.8767 13.0521 65.6944 13.1406C65.5121 13.224 65.3715 13.3464 65.2725 13.5078C65.1735 13.6641 65.1241 13.849 65.1241 14.0625H62.8741C62.8741 13.7031 62.9574 13.362 63.1241 13.0391C63.2907 12.7161 63.5329 12.4323 63.8506 12.1875C64.1683 11.9375 64.5459 11.7422 64.9834 11.6016C65.4261 11.4609 65.9209 11.3906 66.4678 11.3906C67.1241 11.3906 67.7074 11.5 68.2178 11.7188C68.7282 11.9375 69.1293 12.2656 69.4209 12.7031C69.7178 13.1406 69.8662 13.6875 69.8662 14.3438V17.9609C69.8662 18.4245 69.8949 18.8047 69.9522 19.1016C70.0095 19.3932 70.0928 19.6484 70.2022 19.8672V20H67.9287C67.8194 19.7708 67.736 19.4844 67.6787 19.1406C67.6267 18.7917 67.6006 18.4427 67.6006 18.0938ZM67.8975 14.8516L67.9131 16.125H66.6553C66.3584 16.125 66.1006 16.1589 65.8819 16.2266C65.6631 16.2943 65.4834 16.3906 65.3428 16.5156C65.2022 16.6354 65.098 16.776 65.0303 16.9375C64.9678 17.099 64.9366 17.276 64.9366 17.4688C64.9366 17.6615 64.9808 17.8359 65.0694 17.9922C65.1579 18.1432 65.2855 18.263 65.4522 18.3516C65.6189 18.4349 65.8142 18.4766 66.0381 18.4766C66.3767 18.4766 66.6709 18.4089 66.9209 18.2734C67.1709 18.138 67.3636 17.9714 67.4991 17.7734C67.6397 17.5755 67.7126 17.388 67.7178 17.2109L68.3116 18.1641C68.2282 18.3776 68.1136 18.599 67.9678 18.8281C67.8272 19.0573 67.6475 19.2734 67.4287 19.4766C67.21 19.6745 66.947 19.8385 66.6397 19.9688C66.3324 20.0938 65.9678 20.1562 65.5459 20.1562C65.0095 20.1562 64.5225 20.0495 64.085 19.8359C63.6527 19.6172 63.309 19.3177 63.0537 18.9375C62.8037 18.5521 62.6787 18.1146 62.6787 17.625C62.6787 17.1823 62.7621 16.7891 62.9287 16.4453C63.0954 16.1016 63.3402 15.8125 63.6631 15.5781C63.9912 15.3385 64.4001 15.1589 64.8897 15.0391C65.3793 14.9141 65.947 14.8516 66.5928 14.8516H67.8975ZM76.7403 11.5469V20H74.4825V11.5469H76.7403ZM79.4591 11.5469V13.2891H71.8028V11.5469H79.4591ZM83.1222 14.0547H85.5753C86.3462 14.0547 87.0024 14.1823 87.5441 14.4375C88.0909 14.6875 88.5076 15.0365 88.7941 15.4844C89.0857 15.9323 89.2316 16.4505 89.2316 17.0391C89.2316 17.4661 89.1482 17.862 88.9816 18.2266C88.8201 18.5859 88.5831 18.8984 88.2706 19.1641C87.9581 19.4297 87.5753 19.6354 87.1222 19.7812C86.6691 19.9271 86.1534 20 85.5753 20H81.7159V11.5469H83.9738V18.25H85.5753C85.9139 18.25 86.1847 18.1953 86.3878 18.0859C86.5962 17.9714 86.7472 17.8229 86.8409 17.6406C86.9399 17.4583 86.9894 17.2604 86.9894 17.0469C86.9894 16.8229 86.9399 16.6198 86.8409 16.4375C86.7472 16.25 86.5962 16.099 86.3878 15.9844C86.1847 15.8698 85.9139 15.8125 85.5753 15.8125H83.1222V14.0547ZM94.9572 18.3984C95.2332 18.3984 95.478 18.3464 95.6916 18.2422C95.9051 18.1328 96.0718 17.9818 96.1916 17.7891C96.3166 17.5911 96.3817 17.3594 96.3869 17.0938H98.5041C98.4989 17.6875 98.34 18.2161 98.0275 18.6797C97.715 19.138 97.2957 19.5 96.7697 19.7656C96.2436 20.026 95.6551 20.1562 95.0041 20.1562C94.3478 20.1562 93.7749 20.0469 93.2853 19.8281C92.8009 19.6094 92.3973 19.3073 92.0744 18.9219C91.7515 18.5312 91.5093 18.0781 91.3478 17.5625C91.1864 17.0417 91.1056 16.4844 91.1056 15.8906V15.6641C91.1056 15.0651 91.1864 14.5078 91.3478 13.9922C91.5093 13.4714 91.7515 13.0182 92.0744 12.6328C92.3973 12.2422 92.8009 11.9375 93.2853 11.7188C93.7697 11.5 94.3374 11.3906 94.9884 11.3906C95.6811 11.3906 96.2879 11.5234 96.8087 11.7891C97.3348 12.0547 97.7462 12.4349 98.0431 12.9297C98.3452 13.4193 98.4989 14 98.5041 14.6719H96.3869C96.3817 14.3906 96.3218 14.1354 96.2072 13.9062C96.0978 13.6771 95.9364 13.4948 95.7228 13.3594C95.5145 13.2188 95.2567 13.1484 94.9494 13.1484C94.6212 13.1484 94.353 13.2188 94.1447 13.3594C93.9364 13.4948 93.7749 13.6823 93.6603 13.9219C93.5457 14.1562 93.465 14.4245 93.4181 14.7266C93.3765 15.0234 93.3556 15.3359 93.3556 15.6641V15.8906C93.3556 16.2188 93.3765 16.5339 93.4181 16.8359C93.4598 17.138 93.5379 17.4062 93.6525 17.6406C93.7723 17.875 93.9364 18.0599 94.1447 18.1953C94.353 18.3307 94.6239 18.3984 94.9572 18.3984ZM102.589 15.7812H104.87L102.519 20H100.245L102.589 15.7812ZM104.105 11.5469H107.816V20H105.566V13.2891H104.105C103.797 13.2891 103.542 13.3464 103.339 13.4609C103.136 13.5703 102.985 13.7135 102.886 13.8906C102.792 14.0625 102.745 14.2396 102.745 14.4219C102.745 14.599 102.792 14.7708 102.886 14.9375C102.98 15.1042 103.126 15.2422 103.323 15.3516C103.521 15.4609 103.769 15.5156 104.066 15.5156H106.402V17.0469H104.066C103.508 17.0469 103.008 16.9792 102.566 16.8438C102.128 16.7083 101.753 16.5208 101.441 16.2812C101.133 16.0365 100.896 15.7526 100.73 15.4297C100.568 15.1016 100.488 14.7422 100.488 14.3516C100.488 13.9453 100.571 13.5729 100.738 13.2344C100.904 12.8958 101.144 12.599 101.456 12.3438C101.769 12.0885 102.146 11.8932 102.589 11.7578C103.037 11.6172 103.542 11.5469 104.105 11.5469Z" fill="white"/>
<path d="M143 3L119 16.5L126.67 19.3407L138.5 8.25002L129.502 20.3896L129.509 20.3923L129.5 20.3896V27.0001L133.801 21.982L139.25 24.0001L143 3Z" fill="white"/>
</svg>
